<svg width="179" height="39" viewBox="0 0 179 39" fill="none" xmlns="http://www.w3.org/2000/svg">
<g style="mix-blend-mode:multiply" filter="url(#filter0_d_1_20)">
<path d="M4.86932 30V0.90909H23.5057V5.3267H10.1392V13.2244H22.2273V17.642H10.1392V30H4.86932ZM46.6449 0.90909H51.9148V19.9148C51.9148 21.9981 51.4223 23.8305 50.4375 25.4119C49.4621 26.9934 48.089 28.2292 46.3182 29.1193C44.5473 30 42.4782 30.4403 40.1108 30.4403C37.7339 30.4403 35.66 30 33.8892 29.1193C32.1184 28.2292 30.7453 26.9934 29.7699 25.4119C28.7945 23.8305 28.3068 21.9981 28.3068 19.9148V0.90909H33.5767V19.4744C33.5767 20.6866 33.8419 21.7661 34.3722 22.7131C34.9119 23.66 35.6695 24.4034 36.6449 24.9432C37.6203 25.4735 38.7756 25.7386 40.1108 25.7386C41.446 25.7386 42.6013 25.4735 43.5767 24.9432C44.5616 24.4034 45.3191 23.66 45.8494 22.7131C46.3797 21.7661 46.6449 20.6866 46.6449 19.4744V0.90909ZM57.6428 30V0.90909H68.5518C70.7867 0.90909 72.6617 1.29735 74.1768 2.07386C75.7015 2.85038 76.852 3.93939 77.6286 5.34091C78.4145 6.73295 78.8075 8.35701 78.8075 10.2131C78.8075 12.0786 78.4098 13.6979 77.6143 15.071C76.8284 16.4347 75.6683 17.4905 74.1342 18.2386C72.6001 18.9773 70.7157 19.3466 68.4808 19.3466H60.7109V14.9716H67.7706C69.0774 14.9716 70.1475 14.7917 70.9808 14.4318C71.8142 14.0625 72.4297 13.5275 72.8274 12.8267C73.2346 12.1165 73.4382 11.2453 73.4382 10.2131C73.4382 9.18087 73.2346 8.30019 72.8274 7.57102C72.4202 6.83239 71.8 6.27367 70.9666 5.89489C70.1333 5.50663 69.0585 5.3125 67.7422 5.3125H62.9126V30H57.6428ZM72.6712 16.8182L79.8729 30H73.9922L66.9183 16.8182H72.6712ZM107.565 0.90909V30H102.877L89.1697 10.1847H88.9283V30H83.6584V0.90909H88.3743L102.067 20.7386H102.323V0.90909H107.565ZM118.577 0.90909V30H113.307V0.90909H118.577ZM140.093 8.90625C139.96 7.66572 139.402 6.69981 138.417 6.00852C137.442 5.31723 136.173 4.97159 134.61 4.97159C133.512 4.97159 132.569 5.13731 131.783 5.46875C130.997 5.80019 130.396 6.25 129.979 6.81818C129.563 7.38636 129.35 8.03504 129.34 8.7642C129.34 9.37027 129.478 9.89583 129.752 10.3409C130.036 10.786 130.42 11.1648 130.903 11.4773C131.386 11.7803 131.921 12.036 132.508 12.2443C133.095 12.4527 133.687 12.6278 134.283 12.7699L137.011 13.4517C138.109 13.7074 139.165 14.053 140.178 14.4886C141.201 14.9242 142.115 15.4735 142.92 16.1364C143.734 16.7992 144.378 17.5994 144.852 18.5369C145.325 19.4744 145.562 20.5729 145.562 21.8324C145.562 23.5369 145.126 25.0379 144.255 26.3352C143.384 27.6231 142.124 28.6316 140.477 29.3608C138.838 30.0805 136.854 30.4403 134.525 30.4403C132.262 30.4403 130.297 30.09 128.63 29.3892C126.973 28.6884 125.675 27.6657 124.738 26.321C123.81 24.9763 123.308 23.3381 123.232 21.4062H128.417C128.493 22.4195 128.805 23.2623 129.354 23.9347C129.904 24.607 130.619 25.1089 131.499 25.4403C132.389 25.7718 133.384 25.9375 134.482 25.9375C135.628 25.9375 136.632 25.767 137.494 25.4261C138.365 25.0758 139.047 24.5928 139.539 23.9773C140.031 23.3523 140.282 22.6231 140.292 21.7898C140.282 21.0322 140.06 20.4072 139.624 19.9148C139.189 19.4129 138.578 18.9962 137.792 18.6648C137.015 18.3239 136.106 18.0208 135.065 17.7557L131.755 16.9034C129.359 16.2879 127.465 15.3551 126.073 14.1051C124.691 12.8456 123.999 11.1742 123.999 9.09091C123.999 7.37689 124.463 5.87595 125.391 4.58807C126.329 3.30019 127.603 2.30114 129.212 1.59091C130.822 0.871211 132.645 0.511363 134.681 0.511363C136.746 0.511363 138.554 0.871211 140.107 1.59091C141.67 2.30114 142.896 3.29072 143.786 4.55966C144.676 5.81913 145.136 7.26799 145.164 8.90625H140.093ZM150.26 30V0.90909H155.53V13.2244H169.01V0.90909H174.294V30H169.01V17.642H155.53V30H150.26Z" fill="#EAA6A6"/>
<path d="M4.86932 30H3.86932V31H4.86932V30ZM4.86932 0.90909V-0.09091H3.86932V0.90909H4.86932ZM23.5057 0.90909H24.5057V-0.09091H23.5057V0.90909ZM23.5057 5.3267V6.3267H24.5057V5.3267H23.5057ZM10.1392 5.3267V4.3267H9.1392V5.3267H10.1392ZM10.1392 13.2244H9.1392V14.2244H10.1392V13.2244ZM22.2273 13.2244H23.2273V12.2244H22.2273V13.2244ZM22.2273 17.642V18.642H23.2273V17.642H22.2273ZM10.1392 17.642V16.642H9.1392V17.642H10.1392ZM10.1392 30V31H11.1392V30H10.1392ZM5.86932 30V0.90909H3.86932V30H5.86932ZM4.86932 1.90909H23.5057V-0.09091H4.86932V1.90909ZM22.5057 0.90909V5.3267H24.5057V0.90909H22.5057ZM23.5057 4.3267H10.1392V6.3267H23.5057V4.3267ZM9.1392 5.3267V13.2244H11.1392V5.3267H9.1392ZM10.1392 14.2244H22.2273V12.2244H10.1392V14.2244ZM21.2273 13.2244V17.642H23.2273V13.2244H21.2273ZM22.2273 16.642H10.1392V18.642H22.2273V16.642ZM9.1392 17.642V30H11.1392V17.642H9.1392ZM10.1392 29H4.86932V31H10.1392V29ZM46.6449 0.90909V-0.09091H45.6449V0.90909H46.6449ZM51.9148 0.90909H52.9148V-0.09091H51.9148V0.90909ZM50.4375 25.4119L49.5886 24.8833L49.5864 24.887L50.4375 25.4119ZM46.3182 29.1193L46.7635 30.0147L46.7673 30.0128L46.3182 29.1193ZM33.8892 29.1193L33.4401 30.0128L33.4439 30.0147L33.8892 29.1193ZM29.7699 25.4119L30.621 24.887L30.621 24.887L29.7699 25.4119ZM28.3068 0.90909V-0.09091H27.3068V0.90909H28.3068ZM33.5767 0.90909H34.5767V-0.09091H33.5767V0.90909ZM34.3722 22.7131L33.4996 23.2017L33.5034 23.2083L34.3722 22.7131ZM36.6449 24.9432L36.1607 25.8182L36.1672 25.8217L36.6449 24.9432ZM43.5767 24.9432L44.0544 25.8217L44.0573 25.8201L43.5767 24.9432ZM45.8494 22.7131L46.7219 23.2017L46.7219 23.2017L45.8494 22.7131ZM46.6449 1.90909H51.9148V-0.09091H46.6449V1.90909ZM50.9148 0.90909V19.9148H52.9148V0.90909H50.9148ZM50.9148 19.9148C50.9148 21.834 50.4633 23.4788 49.5886 24.8833L51.2864 25.9406C52.3814 24.1822 52.9148 22.1622 52.9148 19.9148H50.9148ZM49.5864 24.887C48.7148 26.3001 47.4858 27.4131 45.8691 28.2258L46.7673 30.0128C48.6922 29.0452 50.2094 27.6866 51.2886 25.9369L49.5864 24.887ZM45.8729 28.2239C44.2651 29.0235 42.3538 29.4403 40.1108 29.4403V31.4403C42.6026 31.4403 44.8296 30.9765 46.7635 30.0147L45.8729 28.2239ZM40.1108 29.4403C37.8576 29.4403 35.9418 29.0233 34.3345 28.2239L33.4439 30.0147C35.3783 30.9767 37.6102 31.4403 40.1108 31.4403V29.4403ZM34.3383 28.2258C32.7215 27.4131 31.4926 26.3001 30.621 24.887L28.9188 25.9369C29.998 27.6866 31.5152 29.0452 33.4401 30.0128L34.3383 28.2258ZM30.621 24.887C29.7544 23.4819 29.3068 21.8358 29.3068 19.9148H27.3068C27.3068 22.1604 27.8346 24.1791 28.9188 25.9369L30.621 24.887ZM29.3068 19.9148V0.90909H27.3068V19.9148H29.3068ZM28.3068 1.90909H33.5767V-0.09091H28.3068V1.90909ZM32.5767 0.90909V19.4744H34.5767V0.90909H32.5767ZM32.5767 19.4744C32.5767 20.8373 32.8763 22.0886 33.4997 23.2017L35.2447 22.2245C34.8074 21.4436 34.5767 20.5358 34.5767 19.4744H32.5767ZM33.5034 23.2083C34.1362 24.3185 35.0285 25.1916 36.1607 25.8181L37.1291 24.0682C36.3105 23.6152 35.6877 23.0016 35.2409 22.2179L33.5034 23.2083ZM36.1672 25.8217C37.3162 26.4464 38.6424 26.7386 40.1108 26.7386V24.7386C38.9088 24.7386 37.9244 24.5006 37.1225 24.0646L36.1672 25.8217ZM40.1108 26.7386C41.5792 26.7386 42.9054 26.4464 44.0544 25.8217L43.099 24.0646C42.2972 24.5006 41.3128 24.7386 40.1108 24.7386V26.7386ZM44.0573 25.8201C45.2006 25.1935 46.0967 24.3182 46.7219 23.2017L44.9769 22.2245C44.5415 23.0019 43.9225 23.6133 43.0961 24.0663L44.0573 25.8201ZM46.7219 23.2017C47.3453 22.0886 47.6449 20.8373 47.6449 19.4744H45.6449C45.6449 20.5358 45.4142 21.4436 44.9769 22.2245L46.7219 23.2017ZM47.6449 19.4744V0.90909H45.6449V19.4744H47.6449ZM57.6428 30H56.6428V31H57.6428V30ZM57.6428 0.90909V-0.09091H56.6428V0.90909H57.6428ZM74.1768 2.07386L73.7208 2.9638L73.723 2.96494L74.1768 2.07386ZM77.6286 5.34091L76.7538 5.82556L76.7578 5.83257L77.6286 5.34091ZM77.6143 15.071L76.7491 14.5697L76.748 14.5716L77.6143 15.071ZM74.1342 18.2386L74.5681 19.1396L74.5725 19.1375L74.1342 18.2386ZM60.7109 19.3466H59.7109V20.3466H60.7109V19.3466ZM60.7109 14.9716V13.9716H59.7109V14.9716H60.7109ZM70.9808 14.4318L71.3773 15.3499L71.386 15.3461L70.9808 14.4318ZM72.8274 12.8267L71.9599 12.3293L71.9577 12.3331L72.8274 12.8267ZM72.8274 7.57102L71.9517 8.05381L71.9543 8.05859L72.8274 7.57102ZM70.9666 5.89489L70.5443 6.80137L70.5528 6.80525L70.9666 5.89489ZM62.9126 5.3125V4.3125H61.9126V5.3125H62.9126ZM62.9126 30V31H63.9126V30H62.9126ZM72.6712 16.8182L73.5487 16.3387L73.2643 15.8182H72.6712V16.8182ZM79.8729 30V31H81.5587L80.7504 29.5206L79.8729 30ZM73.9922 30L73.111 30.4729L73.3939 31H73.9922V30ZM66.9183 16.8182V15.8182H65.2468L66.0372 17.291L66.9183 16.8182ZM58.6428 30V0.90909H56.6428V30H58.6428ZM57.6428 1.90909H68.5518V-0.09091H57.6428V1.90909ZM68.5518 1.90909C70.6758 1.90909 72.3839 2.27864 73.7208 2.9638L74.6329 1.18393C72.9395 0.316054 70.8976 -0.09091 68.5518 -0.09091V1.90909ZM73.723 2.96494C75.0826 3.65742 76.0806 4.61048 76.7538 5.82555L78.5033 4.85627C77.6234 3.2683 76.3203 2.04333 74.6307 1.18278L73.723 2.96494ZM76.7578 5.83257C77.4463 7.05197 77.8075 8.50129 77.8075 10.2131H79.8075C79.8075 8.21272 79.3828 6.41394 78.4993 4.84924L76.7578 5.83257ZM77.8075 10.2131C77.8075 11.9337 77.4419 13.3738 76.7491 14.5698L78.4796 15.5723C79.3777 14.022 79.8075 12.2235 79.8075 10.2131H77.8075ZM76.748 14.5716C76.0701 15.7477 75.0665 16.6714 73.6959 17.3398L74.5725 19.1375C76.2701 18.3096 77.5866 17.1216 78.4807 15.5704L76.748 14.5716ZM73.7004 17.3376C72.3371 17.9941 70.6105 18.3466 68.4808 18.3466V20.3466C70.8209 20.3466 72.8632 19.9605 74.568 19.1396L73.7004 17.3376ZM68.4808 18.3466H60.7109V20.3466H68.4808V18.3466ZM61.7109 19.3466V14.9716H59.7109V19.3466H61.7109ZM60.7109 15.9716H67.7706V13.9716H60.7109V15.9716ZM67.7706 15.9716C69.1585 15.9716 70.3764 15.7821 71.3773 15.3499L70.5844 13.5138C69.9186 13.8013 68.9963 13.9716 67.7706 13.9716V15.9716ZM71.386 15.3461C72.3884 14.9018 73.18 14.2315 73.6971 13.3203L71.9577 12.3331C71.6794 12.8235 71.24 13.2232 70.5756 13.5176L71.386 15.3461ZM73.6949 13.3241C74.2088 12.4278 74.4382 11.375 74.4382 10.2131H72.4382C72.4382 11.1156 72.2604 11.8051 71.9599 12.3293L73.6949 13.3241ZM74.4382 10.2131C74.4382 9.05 74.2084 7.99293 73.7005 7.08345L71.9543 8.05859C72.2608 8.60744 72.4382 9.31174 72.4382 10.2131H74.4382ZM73.7032 7.08824C73.183 6.14473 72.3921 5.44435 71.3804 4.98452L70.5528 6.80525C71.2079 7.103 71.6574 7.52005 71.9517 8.0538L73.7032 7.08824ZM71.3889 4.98844C70.379 4.5179 69.146 4.3125 67.7422 4.3125V6.3125C68.971 6.3125 69.8876 6.49535 70.5443 6.80133L71.3889 4.98844ZM67.7422 4.3125H62.9126V6.3125H67.7422V4.3125ZM61.9126 5.3125V30H63.9126V5.3125H61.9126ZM62.9126 29H57.6428V31H62.9126V29ZM71.7936 17.2976L78.9953 30.4794L80.7504 29.5206L73.5487 16.3387L71.7936 17.2976ZM79.8729 29H73.9922V31H79.8729V29ZM74.8733 29.5271L67.7995 16.3453L66.0372 17.291L73.111 30.4729L74.8733 29.5271ZM66.9183 17.8182H72.6712V15.8182H66.9183V17.8182ZM107.565 0.90909H108.565V-0.09091H107.565V0.90909ZM107.565 30V31H108.565V30H107.565ZM102.877 30L102.055 30.5689L102.353 31H102.877V30ZM89.1697 10.1847L89.9921 9.61576L89.6939 9.18466H89.1697V10.1847ZM88.9283 10.1847V9.18466H87.9283V10.1847H88.9283ZM88.9283 30V31H89.9283V30H88.9283ZM83.6584 30H82.6584V31H83.6584V30ZM83.6584 0.90909V-0.09091H82.6584V0.90909H83.6584ZM88.3743 0.90909L89.1972 0.340861L88.899 -0.09091H88.3743V0.90909ZM102.067 20.7386L101.245 21.3069L101.543 21.7386H102.067V20.7386ZM102.323 20.7386V21.7386H103.323V20.7386H102.323ZM102.323 0.90909V-0.09091H101.323V0.90909H102.323ZM106.565 0.90909V30H108.565V0.90909H106.565ZM107.565 29H102.877V31H107.565V29ZM103.7 29.4311L89.9921 9.61576L88.3473 10.7536L102.055 30.5689L103.7 29.4311ZM89.1697 9.18466H88.9283V11.1847H89.1697V9.18466ZM87.9283 10.1847V30H89.9283V10.1847H87.9283ZM88.9283 29H83.6584V31H88.9283V29ZM84.6584 30V0.90909H82.6584V30H84.6584ZM83.6584 1.90909H88.3743V-0.09091H83.6584V1.90909ZM87.5514 1.47732L101.245 21.3069L102.89 20.1704L89.1972 0.340861L87.5514 1.47732ZM102.067 21.7386H102.323V19.7386H102.067V21.7386ZM103.323 20.7386V0.90909H101.323V20.7386H103.323ZM102.323 1.90909H107.565V-0.09091H102.323V1.90909ZM118.577 0.90909H119.577V-0.09091H118.577V0.90909ZM118.577 30V31H119.577V30H118.577ZM113.307 30H112.307V31H113.307V30ZM113.307 0.90909V-0.09091H112.307V0.90909H113.307ZM117.577 0.90909V30H119.577V0.90909H117.577ZM118.577 29H113.307V31H118.577V29ZM114.307 30V0.90909H112.307V30H114.307ZM113.307 1.90909H118.577V-0.09091H113.307V1.90909ZM140.093 8.90625L139.099 9.01252L139.194 9.90625H140.093V8.90625ZM138.417 6.00852L137.839 6.8244L137.842 6.82701L138.417 6.00852ZM131.783 5.46875L132.172 6.39018L132.172 6.39018L131.783 5.46875ZM129.979 6.81818L129.173 6.22682L129.173 6.22682L129.979 6.81818ZM129.34 8.7642L128.34 8.75122V8.7642H129.34ZM129.752 10.3409L128.901 10.866L128.905 10.8725L128.909 10.8789L129.752 10.3409ZM130.903 11.4773L130.359 12.3169L130.371 12.3243L130.903 11.4773ZM132.508 12.2443L132.173 13.1867L132.173 13.1867L132.508 12.2443ZM134.283 12.7699L134.526 11.7997L134.515 11.7971L134.283 12.7699ZM137.011 13.4517L136.768 14.4218L136.776 14.4238L136.784 14.4257L137.011 13.4517ZM140.178 14.4886L139.783 15.4073L139.786 15.4087L140.178 14.4886ZM142.92 16.1364L142.284 16.9083L142.288 16.9119L142.92 16.1364ZM144.255 26.3352L145.083 26.8955L145.085 26.8927L144.255 26.3352ZM140.477 29.3608L140.879 30.2763L140.881 30.2753L140.477 29.3608ZM128.63 29.3892L128.241 30.3102L128.242 30.311L128.63 29.3892ZM124.738 26.321L123.915 26.889L123.918 26.8929L124.738 26.321ZM123.232 21.4062V20.4062H122.192L122.233 21.4454L123.232 21.4062ZM128.417 21.4062L129.414 21.3317L129.345 20.4062H128.417V21.4062ZM129.354 23.9347L130.129 23.302L130.129 23.302L129.354 23.9347ZM131.499 25.4403L131.147 26.3763L131.15 26.3775L131.499 25.4403ZM137.494 25.4261L137.861 26.356L137.867 26.3539L137.494 25.4261ZM139.539 23.9773L140.32 24.602L140.325 24.5961L139.539 23.9773ZM140.292 21.7898L141.292 21.8011L141.292 21.7892L141.292 21.7773L140.292 21.7898ZM139.624 19.9148L138.869 20.5703L138.875 20.5773L139.624 19.9148ZM137.792 18.6648L137.39 19.5804L137.397 19.5834L137.403 19.5862L137.792 18.6648ZM135.065 17.7557L134.815 18.7241L134.818 18.7248L135.065 17.7557ZM131.755 16.9034L132.004 15.935L132.004 15.9349L131.755 16.9034ZM126.073 14.1051L125.4 14.8444L125.405 14.8492L126.073 14.1051ZM125.391 4.58807L124.583 3.99954L124.58 4.00345L125.391 4.58807ZM129.212 1.59091L129.616 2.50584L129.62 2.50383L129.212 1.59091ZM140.107 1.59091L139.687 2.49824L139.693 2.50127L140.107 1.59091ZM143.786 4.55966L142.968 5.13394L142.97 5.13682L143.786 4.55966ZM145.164 8.90625V9.90625H146.182L146.164 8.88891L145.164 8.90625ZM141.087 8.79998C140.925 7.28467 140.222 6.05391 138.991 5.19003L137.842 6.82701C138.581 7.34572 138.995 8.04677 139.099 9.01252L141.087 8.79998ZM138.995 5.19265C137.806 4.3496 136.317 3.97159 134.61 3.97159V5.97159C136.029 5.97159 137.077 6.28487 137.839 6.82439L138.995 5.19265ZM134.61 3.97159C133.415 3.97159 132.334 4.15143 131.395 4.54732L132.172 6.39018C132.805 6.12319 133.608 5.97159 134.61 5.97159V3.97159ZM131.395 4.54732C130.477 4.93418 129.717 5.48492 129.173 6.22682L130.786 7.40954C131.075 7.01508 131.517 6.6662 132.172 6.39018L131.395 4.54732ZM129.173 6.22682C128.629 6.9691 128.352 7.82158 128.34 8.75122L130.34 8.77719C130.347 8.24849 130.497 7.80363 130.786 7.40954L129.173 6.22682ZM128.34 8.7642C128.34 9.52574 128.514 10.2394 128.901 10.866L130.603 9.8158C130.441 9.55227 130.34 9.21479 130.34 8.7642H128.34ZM128.909 10.8789C129.277 11.4553 129.767 11.9335 130.359 12.3168L131.446 10.6377C131.072 10.396 130.795 10.1166 130.595 9.80287L128.909 10.8789ZM130.371 12.3243C130.922 12.6697 131.524 12.9562 132.173 13.1867L132.842 11.3019C132.318 11.1158 131.85 10.8909 131.434 10.6302L130.371 12.3243ZM132.173 13.1867C132.794 13.4068 133.42 13.5922 134.052 13.7427L134.515 11.7971C133.954 11.6634 133.396 11.4985 132.842 11.3019L132.173 13.1867ZM134.041 13.74L136.768 14.4218L137.253 12.4816L134.526 11.7997L134.041 13.74ZM136.784 14.4257C137.826 14.6682 138.826 14.9956 139.783 15.4073L140.573 13.5699C139.504 13.1104 138.392 12.7465 137.237 12.4777L136.784 14.4257ZM139.786 15.4087C140.727 15.8093 141.558 16.3101 142.284 16.9083L143.555 15.3644C142.672 14.6369 141.675 14.0392 140.57 13.5686L139.786 15.4087ZM142.288 16.9119C142.994 17.4861 143.549 18.1756 143.959 18.9877L145.744 18.0861C145.207 17.0232 144.474 16.1124 143.551 15.3608L142.288 16.9119ZM143.959 18.9877C144.349 19.7603 144.562 20.6986 144.562 21.8324H146.562C146.562 20.4472 146.301 19.1886 145.744 18.0861L143.959 18.9877ZM144.562 21.8324C144.562 23.3572 144.175 24.6602 143.425 25.7777L145.085 26.8927C146.077 25.4156 146.562 23.7167 146.562 21.8324H144.562ZM143.427 25.7749C142.676 26.8839 141.576 27.7808 140.072 28.4463L140.881 30.2753C142.673 29.4824 144.091 28.3623 145.083 26.8955L143.427 25.7749ZM140.074 28.4452C138.595 29.0952 136.756 29.4403 134.525 29.4403V31.4403C136.953 31.4403 139.082 31.0658 140.879 30.2763L140.074 28.4452ZM134.525 29.4403C132.362 29.4403 130.535 29.1053 129.018 28.4674L128.242 30.311C130.058 31.0746 132.161 31.4403 134.525 31.4403V29.4403ZM129.019 28.4682C127.518 27.8334 126.378 26.9242 125.558 25.7491L123.918 26.8929C124.973 28.4072 126.427 29.5435 128.241 30.3102L129.019 28.4682ZM125.561 25.753C124.759 24.591 124.301 23.1447 124.231 21.3671L122.233 21.4454C122.315 23.5315 122.861 25.3617 123.915 26.889L125.561 25.753ZM123.232 22.4062H128.417V20.4062H123.232V22.4062ZM127.42 21.4808C127.508 22.6627 127.88 23.7105 128.58 24.5673L130.129 23.302C129.73 22.8142 129.477 22.1763 129.414 21.3317L127.42 21.4808ZM128.58 24.5673C129.25 25.3875 130.116 25.9881 131.147 26.3763L131.852 24.5044C131.122 24.2297 130.557 23.8265 130.129 23.302L128.58 24.5673ZM131.15 26.3775C132.168 26.7564 133.283 26.9375 134.482 26.9375V24.9375C133.485 24.9375 132.611 24.7871 131.848 24.5032L131.15 26.3775ZM134.482 26.9375C135.725 26.9375 136.859 26.7528 137.861 26.356L137.126 24.4963C136.405 24.7813 135.531 24.9375 134.482 24.9375V26.9375ZM137.867 26.3539C138.867 25.9516 139.701 25.3755 140.32 24.602L138.758 23.3526C138.392 23.8101 137.863 24.1999 137.12 24.4984L137.867 26.3539ZM140.325 24.5961C140.96 23.7892 141.28 22.8439 141.292 21.8011L139.292 21.7784C139.285 22.4023 139.103 22.9153 138.754 23.3584L140.325 24.5961ZM141.292 21.7773C141.28 20.8187 140.992 19.9513 140.373 19.2522L138.875 20.5773C139.128 20.8631 139.285 21.2457 139.292 21.8023L141.292 21.7773ZM140.38 19.2593C139.819 18.6139 139.069 18.1179 138.18 17.7433L137.403 19.5862C138.087 19.8745 138.558 20.2119 138.869 20.5702L140.38 19.2593ZM138.194 17.7491C137.356 17.3813 136.393 17.0619 135.311 16.7866L134.818 18.7248C135.82 18.9798 136.675 19.2665 137.39 19.5804L138.194 17.7491ZM135.314 16.7873L132.004 15.935L131.506 17.8718L134.815 18.7241L135.314 16.7873ZM132.004 15.9349C129.715 15.347 127.981 14.4746 126.741 13.3611L125.405 14.8492C126.949 16.2356 129.003 17.2288 131.506 17.872L132.004 15.9349ZM126.747 13.3659C125.597 12.3186 124.999 10.9285 124.999 9.09091H122.999C122.999 11.42 123.784 13.3727 125.4 14.8444L126.747 13.3659ZM124.999 9.09091C124.999 7.56906 125.407 6.27652 126.203 5.17269L124.58 4.00345C123.519 5.47537 122.999 7.18472 122.999 9.09091H124.999ZM126.2 5.17659C127.023 4.04587 128.15 3.1525 129.616 2.50583L128.809 0.67599C127.055 1.44977 125.635 2.5545 124.583 3.99954L126.2 5.17659ZM129.62 2.50383C131.084 1.84975 132.764 1.51136 134.681 1.51136V-0.488637C132.526 -0.488637 130.561 -0.107328 128.804 0.677984L129.62 2.50383ZM134.681 1.51136C136.63 1.51136 138.29 1.85085 139.687 2.49822L140.528 0.683597C138.819 -0.108426 136.861 -0.488637 134.681 -0.488637V1.51136ZM139.693 2.50127C141.111 3.14577 142.191 4.02647 142.968 5.13394L144.605 3.98538C143.601 2.55497 142.228 1.45651 140.521 0.680541L139.693 2.50127ZM142.97 5.13682C143.736 6.22185 144.139 7.4729 144.164 8.92359L146.164 8.88891C146.132 7.06308 145.616 5.4164 144.603 3.98249L142.97 5.13682ZM145.164 7.90625H140.093V9.90625H145.164V7.90625ZM150.26 30H149.26V31H150.26V30ZM150.26 0.90909V-0.09091H149.26V0.90909H150.26ZM155.53 0.90909H156.53V-0.09091H155.53V0.90909ZM155.53 13.2244H154.53V14.2244H155.53V13.2244ZM169.01 13.2244V14.2244H170.01V13.2244H169.01ZM169.01 0.90909V-0.09091H168.01V0.90909H169.01ZM174.294 0.90909H175.294V-0.09091H174.294V0.90909ZM174.294 30V31H175.294V30H174.294ZM169.01 30H168.01V31H169.01V30ZM169.01 17.642H170.01V16.642H169.01V17.642ZM155.53 17.642V16.642H154.53V17.642H155.53ZM155.53 30V31H156.53V30H155.53ZM151.26 30V0.90909H149.26V30H151.26ZM150.26 1.90909H155.53V-0.09091H150.26V1.90909ZM154.53 0.90909V13.2244H156.53V0.90909H154.53ZM155.53 14.2244H169.01V12.2244H155.53V14.2244ZM170.01 13.2244V0.90909H168.01V13.2244H170.01ZM169.01 1.90909H174.294V-0.09091H169.01V1.90909ZM173.294 0.90909V30H175.294V0.90909H173.294ZM174.294 29H169.01V31H174.294V29ZM170.01 30V17.642H168.01V30H170.01ZM169.01 16.642H155.53V18.642H169.01V16.642ZM154.53 17.642V30H156.53V17.642H154.53ZM155.53 29H150.26V31H155.53V29Z" fill="#C66060"/>
</g>
<defs>
<filter id="filter0_d_1_20" x="0.869324" y="0.511368" width="177.425" height="37.929" filterUnits="userSpaceOnUse" color-interpolation-filters="sRGB">
<feFlood flood-opacity="0" result="BackgroundImageFix"/>
<feColorMatrix in="SourceAlpha" type="matrix" values="0 0 0 0 0 0 0 0 0 0 0 0 0 0 0 0 0 0 127 0" result="hardAlpha"/>
<feOffset dy="4"/>
<feGaussianBlur stdDeviation="2"/>
<feComposite in2="hardAlpha" operator="out"/>
<feColorMatrix type="matrix" values="0 0 0 0 0 0 0 0 0 0 0 0 0 0 0 0 0 0 0.25 0"/>
<feBlend mode="normal" in2="BackgroundImageFix" result="effect1_dropShadow_1_20"/>
<feBlend mode="normal" in="SourceGraphic" in2="effect1_dropShadow_1_20" result="shape"/>
</filter>
</defs>
</svg>
