<svg width="354" height="108" viewBox="0 0 354 108" fill="none" xmlns="http://www.w3.org/2000/svg">
<rect width="354" height="108" fill="white"/>
<path d="M63 38C63 49.3086 63 60.6173 63 71.9259C63 76.0667 64.5482 83.1615 61 86" stroke="black" stroke-width="3" stroke-linecap="round"/>
<path d="M43 71.3333C43.1347 53.0194 48.4094 39.0126 66.5556 31.7778C78.5515 26.9951 92.0133 28.4133 104.333 25.3333" stroke="black" stroke-width="3" stroke-linecap="round"/>
<path d="M64.3334 60.6667C72.0784 60.0953 79.9889 56.6667 87.6667 56.6667" stroke="black" stroke-width="3" stroke-linecap="round"/>
<path d="M99.6667 54.6667C97.0322 62.2958 91.071 79.9759 106.704 74.6667C114.297 72.0878 113.667 63.7913 113.667 57.3333" stroke="black" stroke-width="3" stroke-linecap="round"/>
<path d="M130.333 72C132.04 70.8475 149.524 57.4833 139.148 54.1482C136.588 53.3253 125.673 55.3333 133.667 55.3333C138.01 55.3333 148.471 52.0965 151.259 56.8148C154.123 61.6614 152.148 71.1436 159 72" stroke="black" stroke-width="3" stroke-linecap="round"/>
<path d="M167 52.6667C167.622 57.722 168.333 72.9824 168.333 67.8889C168.333 63.2674 169.071 60.5197 172.482 57.1852C177.489 52.2886 185.257 53.1166 188.037 59.5556C189.015 61.8207 190.244 65.7481 193.037 65.963C197.712 66.3226 201.431 64.8944 204.333 61.1852C205.315 59.9302 205.667 54.9504 205.667 57.7037C205.667 60.2469 205.667 62.7901 205.667 65.3333" stroke="black" stroke-width="3" stroke-linecap="round"/>
<path d="M212.333 33.3333C210.878 33.6366 194.573 38.217 204.556 38C210.51 37.8706 209.876 34.5039 204.333 34" stroke="black" stroke-width="3" stroke-linecap="round"/>
<path d="M251 46.6667C249.908 46.7385 221.86 48.0668 222.444 53.037C222.826 56.2773 239.482 54.6085 242.63 55.7778C245.407 56.8093 245.667 57.9461 245.667 60.5926C245.667 63.2045 238.198 63.8939 236.222 64.2963C228.416 65.8866 220.258 65.3333 212.333 65.3333" stroke="black" stroke-width="3" stroke-linecap="round"/>
<path d="M265.667 31.3333C264.773 38.4347 262.415 45.8088 262.333 52.963C262.305 55.432 262.333 62.8395 262.333 60.3704C262.333 55.3058 267.774 52 272.296 52C275.313 52 277 55.4312 279.37 57.037C282.776 59.3442 286.378 61.6062 290.519 62.2963C296.744 63.3338 303.373 61.4532 309.296 59.6667C312.574 58.6781 317.827 58.5059 320.333 56" stroke="black" stroke-width="3" stroke-linecap="round"/>
</svg>
